# xmcd
#
# Track frame offsets:
#	150
#	9919
#	20436
#	32662
#	42370
#	53960
#	69152
#	76974
#	96650
#	109745
#	121986
#	136723
#	151004
#	163767
#	175240
#	189498
#	204463
#	214845
#	226251
#	237422
#
# Disc length: 3308 seconds
#
# Revision: 0
# Processed by: cddbd v1.5.2PL0 Copyright (c) Steve Scherf et al.
# Submitted via: EasyCDDAExtractor 16.0.6.1
#
DISCID=020cea14
DTITLE=The Pop's - 20 Super
DYEAR=1970
DGENRE=
TTITLE0=A LENDA DO BEIJO
TTITLE1=CONCERTO Nº1
TTITLE2=CARAVAN
TTITLE3=DAY TRIPPER
TTITLE4=NOTURNO DE CHOPIN
TTITLE5=MEU CORAÇÃO A TI PERTENCE
TTITLE6=DRIVING GUITAR
TTITLE7=AS SETE MARAVILHAS Nº3 O GUARANY ÚLTIMA INSPIRAÇÃO\n    LÁBIOS QUE BEI
TTITLE7=JEI CABELOS BRANCOS CAMINHEMOS FEITIÇO DA VILA TA-HI\n
TTITLE8=JOHNNY GUITAR
TTITLE9=O FORASTEIRO
TTITLE10=ATRAVESSANDO RIO WERSEY
TTITLE11=RECORDANDO BOLEROS BESAME MUCHO QUE MURMUREN VEREDA  TROPICAL SABOR A
TTITLE11=MI QUANDO TU ME QUIERAS
TTITLE12=TCHINF
TTITLE13=MR MOTTO
TTITLE14=CIRANDA IÉ IÉ IÉ Nº3 
TTITLE15=ANDALUCIA
TTITLE16=DRIFTIN
TTITLE17=POINCIANA
TTITLE18=HITS POPS
TTITLE19=SAMBA CANÇÃO FOLHAS MORTAS MARINA LAURA
EXTD=
EXTT0=
EXTT1=
EXTT2=
EXTT3=
EXTT4=
EXTT5=
EXTT6=
EXTT7=
EXTT8=
EXTT9=
EXTT10=
EXTT11=
EXTT12=
EXTT13=
EXTT14=
EXTT15=
EXTT16=
EXTT17=
EXTT18=
EXTT19=
PLAYORDER=
